<?xml version="1.0" encoding="UTF-8"?>
<svg xmlns="http://www.w3.org/2000/svg" viewBox="0 0 980 1280" width="980" height="1280">
  <rect width="980" height="1280" fill="#fff"/>
  <text x="44" y="54" font-family="Georgia,serif" font-size="26" fill="#152019">Exterior elevation — shutter front</text>
  <text x="44" y="78" font-family="system-ui,sans-serif" font-size="15" fill="#5c6b62">Taupe Copper Cross Wardrobe</text>
  <text x="44" y="98" font-family="system-ui,sans-serif" font-size="12" fill="#8a9690">SKU PBH-WR-03 · 6 hinged shutter leaves · reference W 8′ × H 7′ × D 2′</text>
  <text x="44" y="116" font-family="system-ui,sans-serif" font-size="12" fill="#8a9690">Matte taupe panels · rose-gold cross accents</text>
  <rect x="120" y="160" width="740" height="920" fill="#e8eeea" stroke="#3d5646" stroke-width="2.4"/>
  <rect x="124" y="168" width="115.33333333333333" height="904" rx="3" fill="#f4f1ea" stroke="#3d5646" stroke-width="1.7"/><circle cx="181.66666666666666" cy="574" r="34.53333333333334" fill="none" stroke="#9a7340" stroke-width="1.4"/><line x1="208.8" y1="509.6" x2="208.8" y2="666" stroke="#152019" stroke-width="3.5" stroke-linecap="round"/><rect x="247.33333333333331" y="168" width="115.33333333333333" height="904" rx="3" fill="#f4f1ea" stroke="#3d5646" stroke-width="1.7"/><circle cx="305" cy="574" r="34.53333333333334" fill="none" stroke="#9a7340" stroke-width="1.4"/><line x1="332.1333333333333" y1="509.6" x2="332.1333333333333" y2="666" stroke="#152019" stroke-width="3.5" stroke-linecap="round"/><rect x="370.66666666666663" y="168" width="115.33333333333333" height="904" rx="3" fill="#f4f1ea" stroke="#3d5646" stroke-width="1.7"/><circle cx="428.3333333333333" cy="574" r="34.53333333333334" fill="none" stroke="#9a7340" stroke-width="1.4"/><line x1="455.46666666666664" y1="509.6" x2="455.46666666666664" y2="666" stroke="#152019" stroke-width="3.5" stroke-linecap="round"/><rect x="494" y="168" width="115.33333333333333" height="904" rx="3" fill="#f4f1ea" stroke="#3d5646" stroke-width="1.7"/><circle cx="551.6666666666666" cy="574" r="34.53333333333334" fill="none" stroke="#9a7340" stroke-width="1.4"/><line x1="578.8" y1="509.6" x2="578.8" y2="666" stroke="#152019" stroke-width="3.5" stroke-linecap="round"/><rect x="617.3333333333333" y="168" width="115.33333333333333" height="904" rx="3" fill="#f4f1ea" stroke="#3d5646" stroke-width="1.7"/><circle cx="674.9999999999999" cy="574" r="34.53333333333334" fill="none" stroke="#9a7340" stroke-width="1.4"/><line x1="702.1333333333332" y1="509.6" x2="702.1333333333332" y2="666" stroke="#152019" stroke-width="3.5" stroke-linecap="round"/><rect x="740.6666666666666" y="168" width="115.33333333333333" height="904" rx="3" fill="#f4f1ea" stroke="#3d5646" stroke-width="1.7"/><circle cx="798.3333333333333" cy="574" r="34.53333333333334" fill="none" stroke="#9a7340" stroke-width="1.4"/><line x1="825.4666666666666" y1="509.6" x2="825.4666666666666" y2="666" stroke="#152019" stroke-width="3.5" stroke-linecap="round"/>
  <text x="44" y="1232" font-size="12" fill="#5c6b62">Shutter / façade drawing · confirm live wall size on WhatsApp · BWP carcass · 10-year manufacturing warranty</text>
</svg>