<?xml version="1.0" encoding="UTF-8"?>
<svg xmlns="http://www.w3.org/2000/svg" viewBox="0 0 980 1280" width="980" height="1280">
  <rect width="980" height="1280" fill="#fff"/>
  <text x="44" y="54" font-family="Georgia,serif" font-size="26" fill="#152019">Exterior elevation — full wardrobe / shutter</text>
  <text x="44" y="78" font-family="system-ui,sans-serif" font-size="15" fill="#5c6b62">Teal Scalloped Oak Wardrobe</text>
  <text x="44" y="98" font-family="system-ui,sans-serif" font-size="12" fill="#8a9690">SKU PBH-WR-25 · hinged shutters · ref W 8′ × H 7′ × D 2′</text>
  <text x="44" y="116" font-family="system-ui,sans-serif" font-size="12" fill="#8a9690">Teal scalloped shutters with oak accents</text>
  <rect x="120" y="160" width="740" height="920" fill="#e8eeea" stroke="#3d5646" stroke-width="2.4"/>
  <rect x="124" y="168" width="177" height="904" rx="3" fill="#f4f1ea" stroke="#3d5646" stroke-width="1.7"/><rect x="134" y="188" width="157" height="506.00000000000006" rx="2" fill="none" stroke="#9a7340" stroke-width="1.2"/><line x1="253.2" y1="509.6" x2="253.2" y2="666" stroke="#152019" stroke-width="3.5" stroke-linecap="round"/><rect x="309" y="168" width="177" height="904" rx="3" fill="#f4f1ea" stroke="#3d5646" stroke-width="1.7"/><rect x="319" y="188" width="157" height="506.00000000000006" rx="2" fill="none" stroke="#9a7340" stroke-width="1.2"/><line x1="438.2" y1="509.6" x2="438.2" y2="666" stroke="#152019" stroke-width="3.5" stroke-linecap="round"/><rect x="494" y="168" width="177" height="904" rx="3" fill="#f4f1ea" stroke="#3d5646" stroke-width="1.7"/><rect x="504" y="188" width="157" height="506.00000000000006" rx="2" fill="none" stroke="#9a7340" stroke-width="1.2"/><line x1="623.2" y1="509.6" x2="623.2" y2="666" stroke="#152019" stroke-width="3.5" stroke-linecap="round"/><rect x="679" y="168" width="177" height="904" rx="3" fill="#f4f1ea" stroke="#3d5646" stroke-width="1.7"/><rect x="689" y="188" width="157" height="506.00000000000006" rx="2" fill="none" stroke="#9a7340" stroke-width="1.2"/><line x1="808.2" y1="509.6" x2="808.2" y2="666" stroke="#152019" stroke-width="3.5" stroke-linecap="round"/>
  <text x="44" y="1232" font-size="12" fill="#5c6b62">Full wardrobe façade drawing · confirm live wall size on WhatsApp · BWP carcass · 10-year warranty</text>
</svg>