<?xml version="1.0" encoding="UTF-8"?>
<svg xmlns="http://www.w3.org/2000/svg" viewBox="0 0 1100 1280" width="1100" height="1280" preserveAspectRatio="xMidYMid meet" role="img">
  <title>Light Grey Lattice Kitchen — detailed kitchen carcass shop drawing</title>
  <rect width="1100" height="1280" fill="#ffffff"/>
  <rect x="20" y="20" width="1060" height="1240" rx="8" fill="none" stroke="#c5d2cb" stroke-width="2"/>

  <text x="44" y="54" font-family="Georgia, 'Times New Roman', serif" font-size="26" fill="#152019">Kitchen carcass shop drawing</text>
  <text x="44" y="78" font-family="system-ui,sans-serif" font-size="15" fill="#5c6b62">Light Grey Lattice Kitchen</text>
  <text x="44" y="98" font-family="system-ui,sans-serif" font-size="12" fill="#8a9690">SKU PBH-KIT-06 · Open wall-cabinet carcass + full run elevation</text>
  <text x="44" y="116" font-family="system-ui,sans-serif" font-size="12" fill="#8a9690">Light grey PU / laminate shutters · light oak carcass · marble counter look</text>

  <rect x="850" y="36" width="206" height="90" rx="6" fill="#f7faf8" stroke="#c5d2cb"/>
  <text x="862" y="58" font-size="11" font-weight="700" fill="#152019">OVERALL (reference)</text>
  <text x="862" y="80" font-size="14" fill="#152019">W 10′ · H 9′ · D 2′</text>
  <text x="862" y="100" font-size="11" fill="#5c6b62">3048 × 2743 mm</text>
  <text x="862" y="116" font-size="11" fill="#5c6b62">18 mm BWP carcass</text>

  <rect x="80" y="160" width="90" height="800" fill="#f3f6f4" stroke="#3d5646" stroke-width="1.5"/><text x="125" y="570" text-anchor="middle" font-size="11" fill="#5c6b62" transform="rotate(-90 125 570)">Tall unit L</text><rect x="710" y="160" width="90" height="800" fill="#f3f6f4" stroke="#3d5646" stroke-width="1.5"/><text x="755" y="570" text-anchor="middle" font-size="11" fill="#5c6b62" transform="rotate(90 755 570)">Tall unit R</text><rect x="172" y="168" width="131" height="80" rx="2" fill="#e8ebe9" stroke="#3d5646" stroke-width="1.4"/><rect x="178" y="176" width="119" height="64" fill="#dfe4e1" stroke="#9a7340" stroke-width="1"/><path d="M237.5 186 Q186 208 237.5 230 Q289 208 237.5 186" fill="none" stroke="#5c6b62" stroke-width="1.4"/><circle cx="237.5" cy="208" r="6" fill="none" stroke="#9a7340" stroke-width="1.2"/><rect x="307" y="168" width="131" height="80" rx="2" fill="#e8ebe9" stroke="#3d5646" stroke-width="1.3"/><rect x="442" y="168" width="131" height="80" rx="2" fill="#e8ebe9" stroke="#3d5646" stroke-width="1.3"/><rect x="577" y="168" width="131" height="80" rx="2" fill="#e8ebe9" stroke="#3d5646" stroke-width="1.4"/><rect x="583" y="176" width="119" height="64" fill="#dfe4e1" stroke="#9a7340" stroke-width="1"/><path d="M642.5 186 Q591 208 642.5 230 Q694 208 642.5 186" fill="none" stroke="#5c6b62" stroke-width="1.4"/><circle cx="642.5" cy="208" r="6" fill="none" stroke="#9a7340" stroke-width="1.2"/><text x="440" y="154" text-anchor="middle" font-size="12" font-weight="700" fill="#152019">Loft / top cabinets</text><rect x="172" y="270" width="131" height="280" rx="2" fill="#e8ebe9" stroke="#3d5646" stroke-width="1.4"/><rect x="178" y="278" width="119" height="264" fill="#dfe4e1" stroke="#9a7340" stroke-width="1"/><path d="M237.5 288 Q186 410 237.5 532 Q289 410 237.5 288" fill="none" stroke="#5c6b62" stroke-width="1.4"/><circle cx="237.5" cy="410" r="6" fill="none" stroke="#9a7340" stroke-width="1.2"/><rect x="307" y="270" width="131" height="280" fill="#e4ebe6" stroke="#3d5646" stroke-width="1.3"/><line x1="307" y1="270" x2="307" y2="270" stroke="#4f6a58" stroke-width="0.55" opacity="0.25"/><line x1="307" y1="278" x2="315" y2="270" stroke="#4f6a58" stroke-width="0.55" opacity="0.25"/><line x1="307" y1="286" x2="323" y2="270" stroke="#4f6a58" stroke-width="0.55" opacity="0.25"/><line x1="307" y1="294" x2="331" y2="270" stroke="#4f6a58" stroke-width="0.55" opacity="0.25"/><line x1="307" y1="302" x2="339" y2="270" stroke="#4f6a58" stroke-width="0.55" opacity="0.25"/><line x1="307" y1="310" x2="347" y2="270" stroke="#4f6a58" stroke-width="0.55" opacity="0.25"/><line x1="307" y1="318" x2="355" y2="270" stroke="#4f6a58" stroke-width="0.55" opacity="0.25"/><line x1="307" y1="326" x2="363" y2="270" stroke="#4f6a58" stroke-width="0.55" opacity="0.25"/><line x1="307" y1="334" x2="371" y2="270" stroke="#4f6a58" stroke-width="0.55" opacity="0.25"/><line x1="307" y1="342" x2="379" y2="270" stroke="#4f6a58" stroke-width="0.55" opacity="0.25"/><line x1="307" y1="350" x2="387" y2="270" stroke="#4f6a58" stroke-width="0.55" opacity="0.25"/><line x1="307" y1="358" x2="395" y2="270" stroke="#4f6a58" stroke-width="0.55" opacity="0.25"/><line x1="307" y1="366" x2="403" y2="270" stroke="#4f6a58" stroke-width="0.55" opacity="0.25"/><line x1="307" y1="374" x2="411" y2="270" stroke="#4f6a58" stroke-width="0.55" opacity="0.25"/><line x1="307" y1="382" x2="419" y2="270" stroke="#4f6a58" stroke-width="0.55" opacity="0.25"/><line x1="307" y1="390" x2="427" y2="270" stroke="#4f6a58" stroke-width="0.55" opacity="0.25"/><line x1="307" y1="398" x2="435" y2="270" stroke="#4f6a58" stroke-width="0.55" opacity="0.25"/><line x1="307" y1="406" x2="438" y2="275" stroke="#4f6a58" stroke-width="0.55" opacity="0.25"/><line x1="307" y1="414" x2="438" y2="283" stroke="#4f6a58" stroke-width="0.55" opacity="0.25"/><line x1="307" y1="422" x2="438" y2="291" stroke="#4f6a58" stroke-width="0.55" opacity="0.25"/><line x1="307" y1="430" x2="438" y2="299" stroke="#4f6a58" stroke-width="0.55" opacity="0.25"/><line x1="307" y1="438" x2="438" y2="307" stroke="#4f6a58" stroke-width="0.55" opacity="0.25"/><line x1="307" y1="446" x2="438" y2="315" stroke="#4f6a58" stroke-width="0.55" opacity="0.25"/><line x1="307" y1="454" x2="438" y2="323" stroke="#4f6a58" stroke-width="0.55" opacity="0.25"/><line x1="307" y1="462" x2="438" y2="331" stroke="#4f6a58" stroke-width="0.55" opacity="0.25"/><line x1="307" y1="470" x2="438" y2="339" stroke="#4f6a58" stroke-width="0.55" opacity="0.25"/><line x1="307" y1="478" x2="438" y2="347" stroke="#4f6a58" stroke-width="0.55" opacity="0.25"/><line x1="307" y1="486" x2="438" y2="355" stroke="#4f6a58" stroke-width="0.55" opacity="0.25"/><line x1="307" y1="494" x2="438" y2="363" stroke="#4f6a58" stroke-width="0.55" opacity="0.25"/><line x1="307" y1="502" x2="438" y2="371" stroke="#4f6a58" stroke-width="0.55" opacity="0.25"/><line x1="307" y1="510" x2="438" y2="379" stroke="#4f6a58" stroke-width="0.55" opacity="0.25"/><line x1="307" y1="518" x2="438" y2="387" stroke="#4f6a58" stroke-width="0.55" opacity="0.25"/><line x1="307" y1="526" x2="438" y2="395" stroke="#4f6a58" stroke-width="0.55" opacity="0.25"/><line x1="307" y1="534" x2="438" y2="403" stroke="#4f6a58" stroke-width="0.55" opacity="0.25"/><line x1="307" y1="542" x2="438" y2="411" stroke="#4f6a58" stroke-width="0.55" opacity="0.25"/><line x1="307" y1="550" x2="438" y2="419" stroke="#4f6a58" stroke-width="0.55" opacity="0.25"/><line x1="315" y1="550" x2="438" y2="427" stroke="#4f6a58" stroke-width="0.55" opacity="0.25"/><line x1="323" y1="550" x2="438" y2="435" stroke="#4f6a58" stroke-width="0.55" opacity="0.25"/><line x1="331" y1="550" x2="438" y2="443" stroke="#4f6a58" stroke-width="0.55" opacity="0.25"/><line x1="339" y1="550" x2="438" y2="451" stroke="#4f6a58" stroke-width="0.55" opacity="0.25"/><line x1="347" y1="550" x2="438" y2="459" stroke="#4f6a58" stroke-width="0.55" opacity="0.25"/><line x1="355" y1="550" x2="438" y2="467" stroke="#4f6a58" stroke-width="0.55" opacity="0.25"/><line x1="363" y1="550" x2="438" y2="475" stroke="#4f6a58" stroke-width="0.55" opacity="0.25"/><line x1="371" y1="550" x2="438" y2="483" stroke="#4f6a58" stroke-width="0.55" opacity="0.25"/><line x1="379" y1="550" x2="438" y2="491" stroke="#4f6a58" stroke-width="0.55" opacity="0.25"/><line x1="387" y1="550" x2="438" y2="499" stroke="#4f6a58" stroke-width="0.55" opacity="0.25"/><line x1="395" y1="550" x2="438" y2="507" stroke="#4f6a58" stroke-width="0.55" opacity="0.25"/><line x1="403" y1="550" x2="438" y2="515" stroke="#4f6a58" stroke-width="0.55" opacity="0.25"/><line x1="411" y1="550" x2="438" y2="523" stroke="#4f6a58" stroke-width="0.55" opacity="0.25"/><line x1="419" y1="550" x2="438" y2="531" stroke="#4f6a58" stroke-width="0.55" opacity="0.25"/><line x1="427" y1="550" x2="438" y2="539" stroke="#4f6a58" stroke-width="0.55" opacity="0.25"/><line x1="435" y1="550" x2="438" y2="547" stroke="#4f6a58" stroke-width="0.55" opacity="0.25"/><rect x="313" y="278" width="119" height="264" fill="#f4ebe0" stroke="#3d5646" stroke-width="1.3"/><rect x="317" y="358.4" width="111" height="8" fill="#e0d2c0" stroke="#3d5646"/><rect x="317" y="450.8" width="111" height="8" fill="#e0d2c0" stroke="#3d5646"/><text x="372.5" y="292" text-anchor="middle" font-size="10" font-weight="700" fill="#152019">OPEN</text><text x="372.5" y="540" text-anchor="middle" font-size="9" fill="#5c6b62">2 shelves · 3 bays</text><rect x="442" y="270" width="131" height="280" rx="2" fill="#e8ebe9" stroke="#3d5646" stroke-width="1.4"/><rect x="448" y="278" width="119" height="264" fill="#dfe4e1" stroke="#9a7340" stroke-width="1"/><path d="M507.5 288 Q456 410 507.5 532 Q559 410 507.5 288" fill="none" stroke="#5c6b62" stroke-width="1.4"/><circle cx="507.5" cy="410" r="6" fill="none" stroke="#9a7340" stroke-width="1.2"/><rect x="577" y="270" width="131" height="280" rx="2" fill="#e8ebe9" stroke="#3d5646" stroke-width="1.4"/><rect x="583" y="278" width="119" height="264" fill="#dfe4e1" stroke="#9a7340" stroke-width="1"/><path d="M642.5 288 Q591 410 642.5 532 Q694 410 642.5 288" fill="none" stroke="#5c6b62" stroke-width="1.4"/><circle cx="642.5" cy="410" r="6" fill="none" stroke="#9a7340" stroke-width="1.2"/><text x="440" y="262" text-anchor="middle" font-size="12" font-weight="700" fill="#152019">Wall cabinets · lattice shutters</text><rect x="178" y="554" width="524" height="4" rx="1" fill="#f0d9a0"/><text x="702" y="570" text-anchor="end" font-size="10" fill="#9a7340">under-cabinet LED</text><rect x="170" y="574" width="540" height="66" fill="#f0f2f1" stroke="#c5d2cb"/><text x="440" y="607" text-anchor="middle" font-size="11" fill="#8a9690">marble backsplash</text><rect x="170" y="640" width="540" height="22" fill="#eef1f0" stroke="#3d5646" stroke-width="1.4"/><text x="440" y="656" text-anchor="middle" font-size="11" font-weight="600" fill="#152019">counter · sink zone</text><rect x="390" y="668" width="100" height="36" rx="4" fill="#f7faf8" stroke="#8aa0aa" stroke-dasharray="4 3"/><text x="440" y="690" text-anchor="middle" font-size="9" fill="#5c6b62">sink</text><rect x="172" y="710" width="131" height="260" rx="2" fill="#e8ebe9" stroke="#3d5646" stroke-width="1.3"/><rect x="180" y="722" width="115" height="236" fill="none" stroke="#9a7340" stroke-width="1"/><rect x="307" y="710" width="131" height="260" rx="2" fill="#e8ebe9" stroke="#3d5646" stroke-width="1.3"/><rect x="315" y="722" width="115" height="236" fill="none" stroke="#9a7340" stroke-width="1"/><rect x="442" y="710" width="131" height="260" rx="2" fill="#e8ebe9" stroke="#3d5646" stroke-width="1.3"/><rect x="450" y="722" width="115" height="236" fill="none" stroke="#9a7340" stroke-width="1"/><rect x="577" y="710" width="131" height="260" rx="2" fill="#e8ebe9" stroke="#3d5646" stroke-width="1.3"/><rect x="585" y="722" width="115" height="236" fill="none" stroke="#9a7340" stroke-width="1"/><text x="440" y="702" text-anchor="middle" font-size="12" font-weight="700" fill="#152019">Base cabinets (shaker)</text><rect x="170" y="952" width="540" height="18" fill="#e4ebe6" stroke="#3d5646" stroke-width="1.3"/><line x1="170" y1="952" x2="170" y2="952" stroke="#4f6a58" stroke-width="0.55" opacity="0.25"/><line x1="170" y1="960" x2="178" y2="952" stroke="#4f6a58" stroke-width="0.55" opacity="0.25"/><line x1="170" y1="968" x2="186" y2="952" stroke="#4f6a58" stroke-width="0.55" opacity="0.25"/><line x1="176" y1="970" x2="194" y2="952" stroke="#4f6a58" stroke-width="0.55" opacity="0.25"/><line x1="184" y1="970" x2="202" y2="952" stroke="#4f6a58" stroke-width="0.55" opacity="0.25"/><line x1="192" y1="970" x2="210" y2="952" stroke="#4f6a58" stroke-width="0.55" opacity="0.25"/><line x1="200" y1="970" x2="218" y2="952" stroke="#4f6a58" stroke-width="0.55" opacity="0.25"/><line x1="208" y1="970" x2="226" y2="952" stroke="#4f6a58" stroke-width="0.55" opacity="0.25"/><line x1="216" y1="970" x2="234" y2="952" stroke="#4f6a58" stroke-width="0.55" opacity="0.25"/><line x1="224" y1="970" x2="242" y2="952" stroke="#4f6a58" stroke-width="0.55" opacity="0.25"/><line x1="232" y1="970" x2="250" y2="952" stroke="#4f6a58" stroke-width="0.55" opacity="0.25"/><line x1="240" y1="970" x2="258" y2="952" stroke="#4f6a58" stroke-width="0.55" opacity="0.25"/><line x1="248" y1="970" x2="266" y2="952" stroke="#4f6a58" stroke-width="0.55" opacity="0.25"/><line x1="256" y1="970" x2="274" y2="952" stroke="#4f6a58" stroke-width="0.55" opacity="0.25"/><line x1="264" y1="970" x2="282" y2="952" stroke="#4f6a58" stroke-width="0.55" opacity="0.25"/><line x1="272" y1="970" x2="290" y2="952" stroke="#4f6a58" stroke-width="0.55" opacity="0.25"/><line x1="280" y1="970" x2="298" y2="952" stroke="#4f6a58" stroke-width="0.55" opacity="0.25"/><line x1="288" y1="970" x2="306" y2="952" stroke="#4f6a58" stroke-width="0.55" opacity="0.25"/><line x1="296" y1="970" x2="314" y2="952" stroke="#4f6a58" stroke-width="0.55" opacity="0.25"/><line x1="304" y1="970" x2="322" y2="952" stroke="#4f6a58" stroke-width="0.55" opacity="0.25"/><line x1="312" y1="970" x2="330" y2="952" stroke="#4f6a58" stroke-width="0.55" opacity="0.25"/><line x1="320" y1="970" x2="338" y2="952" stroke="#4f6a58" stroke-width="0.55" opacity="0.25"/><line x1="328" y1="970" x2="346" y2="952" stroke="#4f6a58" stroke-width="0.55" opacity="0.25"/><line x1="336" y1="970" x2="354" y2="952" stroke="#4f6a58" stroke-width="0.55" opacity="0.25"/><line x1="344" y1="970" x2="362" y2="952" stroke="#4f6a58" stroke-width="0.55" opacity="0.25"/><line x1="352" y1="970" x2="370" y2="952" stroke="#4f6a58" stroke-width="0.55" opacity="0.25"/><line x1="360" y1="970" x2="378" y2="952" stroke="#4f6a58" stroke-width="0.55" opacity="0.25"/><line x1="368" y1="970" x2="386" y2="952" stroke="#4f6a58" stroke-width="0.55" opacity="0.25"/><line x1="376" y1="970" x2="394" y2="952" stroke="#4f6a58" stroke-width="0.55" opacity="0.25"/><line x1="384" y1="970" x2="402" y2="952" stroke="#4f6a58" stroke-width="0.55" opacity="0.25"/><line x1="392" y1="970" x2="410" y2="952" stroke="#4f6a58" stroke-width="0.55" opacity="0.25"/><line x1="400" y1="970" x2="418" y2="952" stroke="#4f6a58" stroke-width="0.55" opacity="0.25"/><line x1="408" y1="970" x2="426" y2="952" stroke="#4f6a58" stroke-width="0.55" opacity="0.25"/><line x1="416" y1="970" x2="434" y2="952" stroke="#4f6a58" stroke-width="0.55" opacity="0.25"/><line x1="424" y1="970" x2="442" y2="952" stroke="#4f6a58" stroke-width="0.55" opacity="0.25"/><line x1="432" y1="970" x2="450" y2="952" stroke="#4f6a58" stroke-width="0.55" opacity="0.25"/><line x1="440" y1="970" x2="458" y2="952" stroke="#4f6a58" stroke-width="0.55" opacity="0.25"/><line x1="448" y1="970" x2="466" y2="952" stroke="#4f6a58" stroke-width="0.55" opacity="0.25"/><line x1="456" y1="970" x2="474" y2="952" stroke="#4f6a58" stroke-width="0.55" opacity="0.25"/><line x1="464" y1="970" x2="482" y2="952" stroke="#4f6a58" stroke-width="0.55" opacity="0.25"/><line x1="472" y1="970" x2="490" y2="952" stroke="#4f6a58" stroke-width="0.55" opacity="0.25"/><line x1="480" y1="970" x2="498" y2="952" stroke="#4f6a58" stroke-width="0.55" opacity="0.25"/><line x1="488" y1="970" x2="506" y2="952" stroke="#4f6a58" stroke-width="0.55" opacity="0.25"/><line x1="496" y1="970" x2="514" y2="952" stroke="#4f6a58" stroke-width="0.55" opacity="0.25"/><line x1="504" y1="970" x2="522" y2="952" stroke="#4f6a58" stroke-width="0.55" opacity="0.25"/><line x1="512" y1="970" x2="530" y2="952" stroke="#4f6a58" stroke-width="0.55" opacity="0.25"/><line x1="520" y1="970" x2="538" y2="952" stroke="#4f6a58" stroke-width="0.55" opacity="0.25"/><line x1="528" y1="970" x2="546" y2="952" stroke="#4f6a58" stroke-width="0.55" opacity="0.25"/><line x1="536" y1="970" x2="554" y2="952" stroke="#4f6a58" stroke-width="0.55" opacity="0.25"/><line x1="544" y1="970" x2="562" y2="952" stroke="#4f6a58" stroke-width="0.55" opacity="0.25"/><line x1="552" y1="970" x2="570" y2="952" stroke="#4f6a58" stroke-width="0.55" opacity="0.25"/><line x1="560" y1="970" x2="578" y2="952" stroke="#4f6a58" stroke-width="0.55" opacity="0.25"/><line x1="568" y1="970" x2="586" y2="952" stroke="#4f6a58" stroke-width="0.55" opacity="0.25"/><line x1="576" y1="970" x2="594" y2="952" stroke="#4f6a58" stroke-width="0.55" opacity="0.25"/><line x1="584" y1="970" x2="602" y2="952" stroke="#4f6a58" stroke-width="0.55" opacity="0.25"/><line x1="592" y1="970" x2="610" y2="952" stroke="#4f6a58" stroke-width="0.55" opacity="0.25"/><line x1="600" y1="970" x2="618" y2="952" stroke="#4f6a58" stroke-width="0.55" opacity="0.25"/><line x1="608" y1="970" x2="626" y2="952" stroke="#4f6a58" stroke-width="0.55" opacity="0.25"/><line x1="616" y1="970" x2="634" y2="952" stroke="#4f6a58" stroke-width="0.55" opacity="0.25"/><line x1="624" y1="970" x2="642" y2="952" stroke="#4f6a58" stroke-width="0.55" opacity="0.25"/><line x1="632" y1="970" x2="650" y2="952" stroke="#4f6a58" stroke-width="0.55" opacity="0.25"/><line x1="640" y1="970" x2="658" y2="952" stroke="#4f6a58" stroke-width="0.55" opacity="0.25"/><line x1="648" y1="970" x2="666" y2="952" stroke="#4f6a58" stroke-width="0.55" opacity="0.25"/><line x1="656" y1="970" x2="674" y2="952" stroke="#4f6a58" stroke-width="0.55" opacity="0.25"/><line x1="664" y1="970" x2="682" y2="952" stroke="#4f6a58" stroke-width="0.55" opacity="0.25"/><line x1="672" y1="970" x2="690" y2="952" stroke="#4f6a58" stroke-width="0.55" opacity="0.25"/><line x1="680" y1="970" x2="698" y2="952" stroke="#4f6a58" stroke-width="0.55" opacity="0.25"/><line x1="688" y1="970" x2="706" y2="952" stroke="#4f6a58" stroke-width="0.55" opacity="0.25"/><line x1="696" y1="970" x2="710" y2="956" stroke="#4f6a58" stroke-width="0.55" opacity="0.25"/><line x1="704" y1="970" x2="710" y2="964" stroke="#4f6a58" stroke-width="0.55" opacity="0.25"/><text x="440" y="966" text-anchor="middle" font-size="10" fill="#3d5646">plinth</text>

  
  <line x1="80" y1="990" x2="800" y2="990" stroke="#9a7340" stroke-width="1.3"/>
  <line x1="80" y1="985" x2="80" y2="995" stroke="#9a7340" stroke-width="1.3"/>
  <line x1="800" y1="985" x2="800" y2="995" stroke="#9a7340" stroke-width="1.3"/>
  <text x="440" y="982" text-anchor="middle" font-size="12" font-weight="700" fill="#152019">Overall W = 10 ft (3048 mm)</text>
  
  <line x1="818" y1="160" x2="818" y2="960" stroke="#9a7340" stroke-width="1.3"/>
  <line x1="813" y1="160" x2="823" y2="160" stroke="#9a7340" stroke-width="1.3"/>
  <line x1="813" y1="960" x2="823" y2="960" stroke="#9a7340" stroke-width="1.3"/>
  <text x="832" y="560" font-size="12" font-weight="700" fill="#152019" transform="rotate(90 832 560)">H = 9 ft</text>

  <g transform="translate(820, 180)">
    <text x="0" y="0" font-size="13" font-weight="700" fill="#152019">Zone schedule</text>
    <text x="0" y="20" font-size="11" fill="#5c6b62">1. Tall flank units</text>
    <text x="0" y="36" font-size="11" fill="#5c6b62">2. Loft / top cabinets</text>
    <text x="0" y="52" font-size="11" fill="#5c6b62">3. Wall cabinets (lattice)</text>
    <text x="0" y="68" font-size="11" fill="#5c6b62">4. Open bay: 2 shelves</text>
    <text x="0" y="84" font-size="11" fill="#5c6b62">5. Under-cabinet LED</text>
    <text x="0" y="100" font-size="11" fill="#5c6b62">6. Counter + sink</text>
    <text x="0" y="116" font-size="11" fill="#5c6b62">7. Base shaker cabinets</text>
    <text x="0" y="140" font-size="11" font-weight="700" fill="#152019">Carcass interior</text>
    <text x="0" y="156" font-size="11" fill="#5c6b62">Light oak laminate</text>
    <text x="0" y="172" font-size="11" fill="#5c6b62">both-side 1 mm</text>
    <text x="0" y="188" font-size="11" fill="#5c6b62">2 mm edge banding</text>
  </g>

  <rect x="40" y="1160" width="1020" height="80" rx="8" fill="#fff9f0" stroke="#9a7340"/>
  <text x="56" y="1186" font-size="13" font-weight="700" fill="#152019">Carcass construction (Priyabadal standard)</text>
  <text x="56" y="1206" font-size="12" fill="#5c6b62">Core: BWP plywood 18 mm · Surfaces: 1 mm laminate both sides · Edges: 2 mm edge banding</text>
  <text x="56" y="1224" font-size="12" fill="#5c6b62">Wall cabinet open bay as photographed — 2 fixed shelves / 3 storage levels · Layout scales to live wall</text>
  <text x="56" y="1242" font-size="12" fill="#5c6b62">Assembly: /guides/carcass-assembly · Confirm plan on WhatsApp · 10-year warranty</text>
</svg>
